<svg xmlns="http://www.w3.org/2000/svg" width="1536" height="1024" viewBox="0 0 1536 1024" version="1.1"><path d="M 388.500 328.489 L 375.500 330.823 368.366 332.883 L 361.232 334.943 352.026 338.935 L 342.820 342.928 336.660 346.374 L 330.500 349.821 319.999 357.260 L 309.499 364.700 298.499 375.601 L 287.500 386.502 280.550 396.189 L 273.599 405.876 268.725 414.688 L 263.850 423.500 259.557 433.538 L 255.265 443.577 252.738 452.538 L 250.212 461.500 248.616 469 L 247.020 476.500 245.968 484 L 244.916 491.500 244.920 510 L 244.925 528.500 246.467 539.500 L 248.010 550.500 251.018 562.409 L 254.026 574.318 257.647 583.409 L 261.267 592.500 265.635 601.233 L 270.003 609.965 273.666 615.733 L 277.329 621.500 284.145 630.727 L 290.961 639.953 298.231 647.606 L 305.500 655.260 314.500 662.813 L 323.500 670.367 331.787 675.771 L 340.074 681.174 351.287 686.459 L 362.500 691.744 373 694.842 L 383.500 697.940 393 699.583 L 402.500 701.227 419.500 701.298 L 436.500 701.368 447.355 699.606 L 458.209 697.844 468.707 694.896 L 479.204 691.949 489.565 687.061 L 499.927 682.174 508.714 676.455 L 517.500 670.736 525 664.467 L 532.500 658.198 541.058 649.349 L 549.617 640.500 554.170 634.500 L 558.723 628.500 563.735 620.815 L 568.748 613.129 573.895 603.110 L 579.042 593.090 583.425 581.748 L 587.809 570.407 590.873 557.953 L 593.937 545.500 595.138 537 L 596.340 528.500 596.333 510 L 596.326 491.500 594.628 481.543 L 592.930 471.586 590.404 461.543 L 587.878 451.500 583.312 440 L 578.745 428.500 574.794 420.617 L 570.844 412.735 567.192 407.117 L 563.540 401.500 557.741 393.771 L 551.942 386.042 543.473 377.142 L 535.003 368.242 527.145 362.052 L 519.286 355.863 510.893 350.782 L 502.500 345.702 494.500 341.977 L 486.500 338.251 476.838 335.157 L 467.175 332.064 460.338 330.543 L 453.500 329.022 444 327.515 L 434.500 326.008 418 326.081 L 401.500 326.154 388.500 328.489 M 396.500 355.462 L 388.500 356.725 380 359.022 L 371.500 361.318 363.798 364.546 L 356.096 367.774 349.462 371.484 L 342.828 375.194 333.001 382.597 L 323.174 389.999 315.451 398.250 L 307.727 406.500 300.715 417 L 293.704 427.500 288.959 437.500 L 284.215 447.500 281.213 456.500 L 278.212 465.500 276.161 475 L 274.110 484.500 273.005 495.410 L 271.899 506.320 273.115 507.071 L 274.331 507.823 278.915 508.493 L 283.500 509.163 293.367 511.090 L 303.234 513.017 310.867 514.969 L 318.500 516.921 334.794 522.458 L 351.089 527.994 364.009 533.929 L 376.929 539.864 387.714 546.115 L 398.500 552.366 402.057 554.351 L 405.614 556.337 412.057 551.314 L 418.500 546.291 423.500 542.823 L 428.500 539.356 437.314 534.158 L 446.127 528.961 453.314 525.340 L 460.500 521.719 473 516.750 L 485.500 511.782 502.577 507.480 L 519.654 503.178 533.077 501.068 L 546.500 498.958 556.770 498.125 L 567.041 497.292 567.603 496.730 L 568.165 496.168 566.531 485.834 L 564.897 475.500 562.936 467.784 L 560.975 460.068 557.930 451.784 L 554.886 443.500 549.365 433.048 L 543.845 422.597 537.693 414.074 L 531.540 405.552 522.520 396.447 L 513.500 387.343 504.500 380.670 L 495.500 373.996 484.500 368.541 L 473.500 363.086 464 360.068 L 454.500 357.051 445.619 355.525 L 436.738 354 420.619 354.099 L 404.500 354.198 396.500 355.462 M 636.667 357.667 L 636 358.333 636 371.667 L 636 385 654.500 385 L 673 385 673 441 L 673 497 689 497 L 705 497 705 441 L 705 385 722.500 385 L 740 385 740 371 L 740 357 688.667 357 L 637.333 357 636.667 357.667 M 755.677 357.656 L 755 358.333 755 427.667 L 755 497 798.500 497 L 842 497 842 482.500 L 842 468 814.042 468 L 786.084 468 786.117 453.518 L 786.150 439.036 809.825 438.768 L 833.500 438.500 833.814 430 L 834.128 421.500 833.492 416.250 L 832.856 411 809.398 411 L 785.940 411 786.220 398.250 L 786.500 385.500 813.278 385.234 L 840.056 384.967 839.778 371.234 L 839.500 357.500 797.927 357.239 L 756.355 356.978 755.677 357.656 M 862 426.914 L 862 497 877.500 497 L 893 497 893.007 473.250 L 893.015 449.500 908.542 449.299 L 924.069 449.098 930.061 447.563 L 936.052 446.028 941.276 442.677 L 946.500 439.326 950.365 435.033 L 954.230 430.740 956.607 425.547 L 958.985 420.354 959.992 415.040 L 961 409.727 961 402.913 L 961 396.098 959.885 390.799 L 958.771 385.500 956.321 380.268 L 953.872 375.036 949.076 370.265 L 944.279 365.494 939.553 363.134 L 934.827 360.773 929.664 359.237 L 924.500 357.701 893.250 357.265 L 862 356.829 862 426.914 M 978.750 357.571 L 978 358.333 978 427.693 L 978 497.052 993.250 496.776 L 1008.500 496.500 1009 473 L 1009.500 449.500 1024.500 449.243 L 1039.500 448.985 1045.315 447.497 L 1051.130 446.008 1055.815 443.271 L 1060.500 440.535 1064.920 436.017 L 1069.341 431.500 1072.641 424.378 L 1075.942 417.256 1077.023 410.292 L 1078.103 403.327 1077.049 394.918 L 1075.995 386.509 1073.533 381.505 L 1071.072 376.500 1068.052 372.858 L 1065.032 369.216 1059.370 365.458 L 1053.708 361.700 1047.604 359.688 L 1041.500 357.676 1010.500 357.243 L 979.500 356.809 978.750 357.571 M 1117.167 358.750 L 1116.263 360.500 1115.207 364 L 1114.150 367.500 1106.113 392.500 L 1098.076 417.500 1086.038 455.342 L 1074 493.185 1074 495.092 L 1074 497 1090.461 497 L 1106.923 497 1108.017 492.750 L 1109.110 488.500 1110.481 484 L 1111.852 479.500 1113.454 473.750 L 1115.056 468 1137.448 468 L 1159.841 468 1160.530 471.250 L 1161.220 474.500 1163.675 483.500 L 1166.131 492.500 1167.044 494.750 L 1167.957 497 1184.420 497 L 1200.882 497 1201.325 496.250 L 1201.768 495.500 1198.003 483 L 1194.239 470.500 1183.523 437 L 1172.808 403.500 1165.985 382 L 1159.162 360.500 1158.474 358.750 L 1157.786 357 1137.928 357 L 1118.070 357 1117.167 358.750 M 893 403.400 L 893 422 902.750 421.994 L 912.500 421.989 916.488 420.882 L 920.477 419.774 923.601 416.462 L 926.725 413.149 927.863 408.632 L 929 404.114 928.978 400.807 L 928.956 397.500 927.057 393.316 L 925.157 389.133 921.829 387.346 L 918.500 385.559 905.750 385.179 L 893 384.799 893 403.400 M 1008.793 403.492 L 1009.087 422.203 1021.293 421.789 L 1033.500 421.374 1036.214 420.043 L 1038.928 418.712 1041.673 414.750 L 1044.419 410.788 1044.817 404.532 L 1045.215 398.275 1043.195 393.709 L 1041.175 389.142 1037.838 387.375 L 1034.500 385.608 1021.500 385.194 L 1008.500 384.781 1008.793 403.492 M 1137.015 388.272 L 1137 390.043 1130.573 412.772 L 1124.147 435.500 1123.465 438.250 L 1122.783 441 1137.392 441 L 1152 441 1152 439.887 L 1152 438.774 1148.571 426.637 L 1145.142 414.500 1142.071 403.607 L 1139 392.714 1138.985 391.107 L 1138.969 389.500 1138 388 L 1137.031 386.500 1137.015 388.272 M 467.500 395.431 L 460.500 396.646 452.500 398.938 L 444.500 401.231 440.500 403.249 L 436.500 405.267 427.741 411.249 L 418.982 417.231 411.943 424.768 L 404.905 432.305 401.524 437.402 L 398.143 442.500 394.097 451 L 390.052 459.500 388.510 465.500 L 386.969 471.500 386.336 476.840 L 385.704 482.180 381.347 473.121 L 376.990 464.062 370.983 457.641 L 364.976 451.219 358.654 447.100 L 352.332 442.982 344.403 440.088 L 336.473 437.194 330.166 435.953 L 323.859 434.712 322.188 436.384 L 320.516 438.055 320.765 445.396 L 321.014 452.736 322.978 460.414 L 324.942 468.092 327.915 474.296 L 330.888 480.500 335.718 486.476 L 340.548 492.452 346.408 497.172 L 352.268 501.893 358.884 505.323 L 365.500 508.753 371.893 510.925 L 378.286 513.096 386.279 514.612 L 394.271 516.129 395.015 515.314 L 395.758 514.500 397.029 510.500 L 398.300 506.500 401.486 499.486 L 404.672 492.471 409.030 485.486 L 413.389 478.500 417.565 473 L 421.741 467.500 428.454 460.727 L 435.166 453.955 441.154 449.977 L 447.141 446 447.639 446 L 448.137 446 443.524 450.872 L 438.911 455.744 431.920 464.965 L 424.929 474.186 421.091 481.843 L 417.252 489.500 414.602 496.876 L 411.952 504.253 410.947 508.739 L 409.941 513.224 410.957 514.448 L 411.973 515.673 418.237 514.826 L 424.500 513.979 434 511.030 L 443.500 508.081 451.500 502.878 L 459.500 497.675 467.500 489.511 L 475.500 481.347 480.313 473.296 L 485.126 465.245 489.058 454.083 L 492.990 442.921 494.915 432.210 L 496.841 421.500 498.037 409.072 L 499.232 396.643 497.425 395.322 L 495.618 394 485.059 394.108 L 474.500 394.215 467.500 395.431 M 563 525.691 L 559.500 526.061 543.617 528.040 L 527.734 530.018 513.617 533.435 L 499.500 536.851 490.538 540.029 L 481.576 543.206 471.732 547.571 L 461.888 551.935 450.694 558.616 L 439.500 565.297 435 568.311 L 430.500 571.324 430.163 571.582 L 429.826 571.841 437.520 579.170 L 445.214 586.500 446.001 586.798 L 446.789 587.096 453.692 582.630 L 460.596 578.165 472.048 572.275 L 483.500 566.385 495.305 562.196 L 507.109 558.007 516.805 555.584 L 526.500 553.162 536 551.598 L 545.500 550.034 555.250 549.370 L 565 548.705 565.001 548.602 L 565.003 548.500 566.500 540 L 567.997 531.500 567.999 528.250 L 568 525 567.250 525.160 L 566.500 525.320 563 525.691 M 1038.490 535.016 L 1034.480 535.814 1028.603 537.879 L 1022.727 539.945 1017.240 543.722 L 1011.754 547.500 1006.401 553.281 L 1001.048 559.062 998.307 563.740 L 995.566 568.417 992.793 576.253 L 990.019 584.090 988.827 595.526 L 987.635 606.961 988.878 617.731 L 990.120 628.500 993.116 637.500 L 996.112 646.500 1000.024 652.520 L 1003.935 658.540 1008.217 662.882 L 1012.500 667.224 1016.740 670.153 L 1020.979 673.082 1027.538 675.550 L 1034.096 678.019 1043.891 679.085 L 1053.686 680.150 1061.234 679.100 L 1068.781 678.051 1073.641 676.421 L 1078.500 674.791 1084.141 671.389 L 1089.783 667.987 1095.653 661.712 L 1101.522 655.437 1105.214 648.412 L 1108.906 641.386 1111.357 631.943 L 1113.809 622.500 1114.490 612.500 L 1115.171 602.500 1114.052 593.500 L 1112.933 584.500 1110.384 576.541 L 1107.835 568.581 1106.263 565.541 L 1104.692 562.500 1100.935 557.414 L 1097.179 552.327 1092.425 548.143 L 1087.672 543.959 1082.439 540.965 L 1077.205 537.971 1069.443 535.985 L 1061.680 534 1052.090 534.110 L 1042.500 534.219 1038.490 535.016 M 273.003 535.731 L 273.007 536.500 274.913 546.327 L 276.820 556.153 277.297 556.630 L 277.774 557.107 289.137 559.624 L 300.500 562.141 312.500 565.682 L 324.500 569.223 336.707 574.051 L 348.914 578.879 360.707 584.898 L 372.500 590.917 383 597.797 L 393.500 604.677 404 613.074 L 414.500 621.470 423.572 630.581 L 432.644 639.692 440.072 648.468 L 447.500 657.243 452.274 663.516 L 457.049 669.789 461.774 667.980 L 466.500 666.171 471.312 664.095 L 476.123 662.018 472.035 656.259 L 467.947 650.500 457.875 638.253 L 447.802 626.005 436.315 615.036 L 424.828 604.066 412.870 594.783 L 400.912 585.500 390.206 578.682 L 379.500 571.864 363.500 563.986 L 347.500 556.109 335.684 551.546 L 323.868 546.983 306.684 542.561 L 289.500 538.138 283.500 537.030 L 277.500 535.921 275.250 535.442 L 273 534.962 273.003 535.731 M 688.152 537.317 L 687.024 538.676 684.101 548.088 L 681.179 557.500 676.970 570.500 L 672.760 583.500 668.460 597 L 664.160 610.500 654.085 641.500 L 644.011 672.500 644.005 674.250 L 644 676 660.472 676 L 676.944 676 678.426 670.750 L 679.908 665.500 682.310 657 L 684.712 648.500 707.209 648.232 L 729.705 647.963 732.423 658.232 L 735.141 668.500 736.109 672.250 L 737.077 676 754.106 676 L 771.135 676 770.412 673.750 L 769.690 671.500 761.472 645 L 753.255 618.500 743.007 585.500 L 732.759 552.500 730.130 544.500 L 727.500 536.500 708.390 536.229 L 689.280 535.958 688.152 537.317 M 782.678 536.655 L 782 537.333 782 606.667 L 782 676 797.500 676 L 813 676 813 620 L 813 564 838.028 564 L 863.056 564 862.778 550.250 L 862.500 536.500 822.928 536.239 L 783.356 535.977 782.678 536.655 M 879.250 537.094 L 878 538.400 878 607.200 L 878 676 893.500 676 L 909 676 909 653.500 L 909 631 922.250 630.983 L 935.500 630.965 942.335 629.517 L 949.170 628.069 954.587 625.589 L 960.005 623.108 965.495 617.916 L 970.986 612.724 973.487 607.436 L 975.989 602.148 977.480 595.824 L 978.970 589.500 978.985 582.644 L 979 575.789 977.423 569.704 L 975.847 563.620 973.813 559.633 L 971.779 555.647 966.905 550.493 L 962.031 545.340 956.266 542.497 L 950.500 539.654 945 538.260 L 939.500 536.866 910 536.327 L 880.500 535.788 879.250 537.094 M 1044.589 563.066 L 1040.679 564.036 1037.386 566.071 L 1034.093 568.106 1030.479 573.028 L 1026.866 577.950 1024.921 583.484 L 1022.977 589.017 1021.955 598.969 L 1020.934 608.921 1022.002 617.517 L 1023.070 626.113 1025.119 631.589 L 1027.168 637.065 1030.341 641.282 L 1033.514 645.500 1038.936 648.250 L 1044.359 651 1051.313 651 L 1058.268 651 1062.384 649.778 L 1066.500 648.555 1071.107 643.969 L 1075.713 639.382 1077.950 633.441 L 1080.186 627.500 1081.219 621 L 1082.252 614.500 1081.723 602.500 L 1081.194 590.500 1079.003 583.893 L 1076.813 577.286 1073.156 572.451 L 1069.500 567.616 1064.634 565.114 L 1059.769 562.611 1054.134 562.354 L 1048.500 562.097 1044.589 563.066 M 908.998 583.150 L 908.996 602.500 921.748 602 L 934.500 601.500 937.926 599.487 L 941.352 597.474 943.762 592.987 L 946.173 588.500 945.745 581.377 L 945.317 574.253 943.079 571.112 L 940.842 567.970 937.671 566.264 L 934.500 564.559 921.750 564.179 L 909 563.799 908.998 583.150 M 707 569.585 L 707 571.171 702.061 589.335 L 697.121 607.500 695.074 614 L 693.026 620.500 693.013 620.750 L 693 621 707.500 621 L 722 621 722 620.429 L 722 619.858 718.029 605.679 L 714.057 591.500 712.055 584 L 710.054 576.500 708.988 572.250 L 707.923 568 707.461 568 L 707 568 707 569.585 M 535.920 578.960 L 522.339 581.804 511.915 585.292 L 501.491 588.780 492.426 592.862 L 483.362 596.943 475.181 601.578 L 467 606.213 467 607.014 L 467 607.814 473.387 615.330 L 479.775 622.846 485.346 619.911 L 490.918 616.977 501.140 612.993 L 511.362 609.010 523.146 606.044 L 534.931 603.078 539.810 602.431 L 544.690 601.784 547.486 596.142 L 550.283 590.500 553.616 583.250 L 556.950 576 553.225 576.058 L 549.500 576.116 535.920 578.960 M 293.100 594.449 L 297.062 602.059 300.599 607.587 L 304.135 613.114 305.817 613.649 L 307.500 614.184 319.500 618.710 L 331.500 623.236 340 627.773 L 348.500 632.309 356 637.303 L 363.500 642.297 371.976 648.898 L 380.451 655.500 390.138 664.788 L 399.824 674.076 405.662 675.049 L 411.500 676.022 419.208 675.880 L 426.915 675.738 422.217 669.619 L 417.519 663.500 407.009 652.960 L 396.500 642.419 389 636.368 L 381.500 630.318 374.414 625.279 L 367.329 620.240 356.059 613.491 L 344.790 606.743 334.145 602.009 L 323.500 597.275 314.500 594.626 L 305.500 591.977 298.500 589.856 L 291.500 587.734 290.319 587.287 L 289.138 586.839 293.100 594.449 M 506.220 639.488 L 494.940 644.916 497.118 647.421 L 499.296 649.925 502.398 647.750 L 505.500 645.575 512.886 639.787 L 520.272 634 518.886 634.030 L 517.500 634.060 506.220 639.488" stroke="none" fill="#082618" fill-rule="evenodd"/></svg>

